<svg width="17" height="16" viewBox="0 0 17 16" fill="none" xmlns="http://www.w3.org/2000/svg">
<path d="M8.86734 15.2487C8.23734 15.2487 7.60334 15.1667 6.98034 15.0007C6.63876 14.9008 6.34982 14.6712 6.17527 14.3611C6.00071 14.0509 5.95439 13.6848 6.04619 13.341C6.138 12.9971 6.36065 12.7028 6.66657 12.5209C6.97249 12.3391 7.33741 12.2841 7.68334 12.3677C8.46603 12.5756 9.28955 12.5747 10.0718 12.365C10.854 12.1553 11.5676 11.7442 12.1413 11.1727C12.7132 10.599 13.1246 9.88526 13.3344 9.10284C13.5443 8.32042 13.5453 7.49664 13.3373 6.71372C13.2911 6.5409 13.2794 6.36066 13.3029 6.18331C13.3264 6.00596 13.3846 5.83498 13.4742 5.68015C13.5639 5.52532 13.6831 5.38968 13.8252 5.28099C13.9673 5.1723 14.1294 5.09269 14.3023 5.04672C14.4752 5.0002 14.6556 4.98828 14.8331 5.01163C15.0106 5.03499 15.1818 5.09316 15.3367 5.18282C15.4917 5.27248 15.6275 5.39185 15.7362 5.5341C15.8449 5.67634 15.9245 5.83865 15.9703 6.01172C16.3003 7.25636 16.2983 8.56573 15.9646 9.80937C15.6309 11.053 14.9771 12.1875 14.0683 13.0997C12.6874 14.4761 10.817 15.2496 8.86734 15.2487Z" fill="#222222"/>
<path d="M1.36143 11.668C1.09208 11.6677 0.828865 11.5876 0.60501 11.4378C0.381154 11.288 0.206697 11.0752 0.103664 10.8264C0.000631735 10.5775 -0.0263573 10.3037 0.0261045 10.0395C0.0785663 9.77533 0.208127 9.53261 0.398429 9.342L3.36543 6.376C3.62303 6.13067 3.96634 5.99576 4.32205 6.0001C4.67776 6.00444 5.01767 6.14767 5.26922 6.39921C5.52076 6.65076 5.66399 6.99067 5.66833 7.34638C5.67267 7.70209 5.53776 8.0454 5.29243 8.303L2.32543 11.269C2.19902 11.3958 2.04876 11.4964 1.88331 11.5648C1.71786 11.6333 1.54049 11.6684 1.36143 11.668Z" fill="#222222"/>
<path d="M11.5 1.75C11.5 2.21413 11.3156 2.65925 10.9874 2.98744C10.6592 3.31563 10.2141 3.5 9.75 3.5C9.28587 3.5 8.84075 3.31563 8.51256 2.98744C8.18438 2.65925 8 2.21413 8 1.75C8 1.28587 8.18438 0.840751 8.51256 0.512563C8.84075 0.184374 9.28587 0 9.75 0C10.2141 0 10.6592 0.184374 10.9874 0.512563C11.3156 0.840751 11.5 1.28587 11.5 1.75Z" fill="#277E66"/>
</svg>
