<svg width="32" height="45" viewBox="0 0 32 45" fill="none" xmlns="http://www.w3.org/2000/svg">
<path d="M15.68 38.51L4.71701 27.547C0.755009 23.585 -0.876991 17.744 0.457009 12.304C1.79401 6.85401 5.74401 2.72801 11.293 0.984014C14.1481 0.0820295 17.2119 0.0820295 20.067 0.984014C25.617 2.72801 29.567 6.85401 30.903 12.304C32.237 17.744 30.605 23.585 26.643 27.547L15.68 38.51Z" fill="#FAFAFA"/>
<path d="M15.68 38.51L4.71701 27.547C0.755009 23.585 -0.876991 17.744 0.457009 12.304C1.79401 6.85401 5.74401 2.72801 11.293 0.984014C14.1481 0.0820295 17.2119 0.0820295 20.067 0.984014C25.617 2.72801 29.567 6.85401 30.903 12.304C32.237 17.744 30.605 23.585 26.643 27.547L15.68 38.51ZM15.68 3.03401C14.478 3.03401 13.277 3.21701 12.11 3.58401C7.49001 5.03501 4.20701 8.45001 3.10401 12.954C2.56309 15.1918 2.60445 17.5309 3.22415 19.7481C3.84385 21.9654 5.02123 23.987 6.64401 25.62L15.68 34.657L24.717 25.62C26.3397 23.9867 27.517 21.965 28.1367 19.7476C28.7564 17.5301 28.7978 15.191 28.257 12.953C27.152 8.45001 23.87 5.03501 19.25 3.58401C18.095 3.21994 16.8911 3.03447 15.68 3.03401Z" fill="#222222"/>
<path d="M8.83 20.662C8.56065 20.6617 8.29743 20.5816 8.07358 20.4318C7.84972 20.282 7.67526 20.0692 7.57223 19.8204C7.4692 19.5715 7.44221 19.2977 7.49467 19.0335C7.54713 18.7693 7.67669 18.5266 7.867 18.336L10.834 15.37C11.0916 15.1247 11.4349 14.9898 11.7906 14.9941C12.1463 14.9984 12.4862 15.1417 12.7378 15.3932C12.9893 15.6447 13.1326 15.9847 13.1369 16.3404C13.1412 16.6961 13.0063 17.0394 12.761 17.297L9.794 20.263C9.66758 20.3898 9.51732 20.4904 9.35187 20.5588C9.18642 20.6273 9.00906 20.6624 8.83 20.662Z" fill="#222222"/>
<path d="M19.18 10.29C19.18 10.7541 18.9956 11.1993 18.6674 11.5274C18.3392 11.8556 17.8941 12.04 17.43 12.04C16.9659 12.04 16.5207 11.8556 16.1926 11.5274C15.8644 11.1993 15.68 10.7541 15.68 10.29C15.68 9.82588 15.8644 9.38076 16.1926 9.05257C16.5207 8.72438 16.9659 8.54001 17.43 8.54001C17.8941 8.54001 18.3392 8.72438 18.6674 9.05257C18.9956 9.38076 19.18 9.82588 19.18 10.29Z" fill="#277E66"/>
<path d="M16.109 23.64C15.479 23.64 14.845 23.558 14.222 23.392C13.8804 23.2921 13.5915 23.0625 13.4169 22.7524C13.2424 22.4422 13.1961 22.0761 13.2879 21.7322C13.3797 21.3884 13.6023 21.0941 13.9082 20.9122C14.2142 20.7304 14.5791 20.6754 14.925 20.759C15.7077 20.9669 16.5312 20.966 17.3134 20.7563C18.0957 20.5466 18.8092 20.1355 19.383 19.564C19.9549 18.9902 20.3663 18.2765 20.5761 17.4941C20.786 16.7117 20.787 15.8879 20.579 15.105C20.5328 14.9322 20.5211 14.7519 20.5446 14.5746C20.5681 14.3972 20.6263 14.2263 20.7159 14.0714C20.8055 13.9166 20.9248 13.781 21.0669 13.6723C21.209 13.5636 21.3711 13.484 21.544 13.438C21.7169 13.3915 21.8973 13.3796 22.0748 13.4029C22.2523 13.4263 22.4234 13.4844 22.5784 13.5741C22.7334 13.6638 22.8691 13.7831 22.9779 13.9254C23.0866 14.0676 23.1662 14.2299 23.212 14.403C23.542 15.6476 23.54 16.957 23.2063 18.2007C22.8726 19.4443 22.2187 20.5788 21.31 21.491C19.9291 22.8674 18.0587 23.6408 16.109 23.64ZM2.63501 41.52H28.725V44.245H2.63501V41.52Z" fill="#222222"/>
</svg>
