<svg width="64" height="91" viewBox="0 0 64 91" fill="none" xmlns="http://www.w3.org/2000/svg">
    <path
        d="M31.3608 77.52L9.43475 55.594C1.51075 47.67 -1.75325 35.988 0.91475 25.108C3.58875 14.208 11.4888 5.956 22.5868 2.468C28.297 0.664028 34.4245 0.664028 40.1348 2.468C51.2348 5.956 59.1348 14.208 61.8068 25.108C64.4748 35.988 61.2108 47.67 53.2868 55.594L31.3608 77.52Z"
        fill="#FAFAFA" />
    <path
        d="M31.3608 77.52L9.43475 55.594C1.51075 47.67 -1.75325 35.988 0.91475 25.108C3.58875 14.208 11.4888 5.956 22.5868 2.468C28.297 0.664028 34.4245 0.664028 40.1348 2.468C51.2348 5.956 59.1348 14.208 61.8068 25.108C64.4748 35.988 61.2108 47.67 53.2868 55.594L31.3608 77.52ZM31.3608 6.568C28.9568 6.568 26.5547 6.934 24.2207 7.668C14.9807 10.57 8.41475 17.4 6.20875 26.408C5.12691 30.8836 5.20964 35.5617 6.44904 39.9962C7.68844 44.4308 10.0432 48.4739 13.2887 51.74L31.3608 69.814L49.4347 51.74C52.6802 48.4733 55.0348 44.4299 56.2742 39.9951C57.5135 35.5603 57.5964 30.8819 56.5148 26.406C54.3048 17.4 47.7408 10.57 38.5008 7.668C36.1907 6.93985 33.7829 6.5689 31.3608 6.568Z"
        fill="#222222" />
    <path
        d="M17.6607 41.824C17.122 41.8234 16.5956 41.6632 16.1479 41.3636C15.7002 41.064 15.3513 40.6385 15.1452 40.1408C14.9391 39.643 14.8852 39.0954 14.9901 38.567C15.095 38.0387 15.3541 37.5532 15.7347 37.172L21.6687 31.24C22.1839 30.7493 22.8705 30.4795 23.582 30.4882C24.2934 30.4969 24.9732 30.7833 25.4763 31.2864C25.9794 31.7895 26.2658 32.4693 26.2745 33.1808C26.2832 33.8922 26.0134 34.5788 25.5227 35.094L19.5887 41.026C19.3359 41.2796 19.0354 41.4807 18.7045 41.6177C18.3736 41.7546 18.0188 41.8248 17.6607 41.824Z"
        fill="#222222" />
    <path
        d="M26.2743 39.1016C26.2737 39.6402 26.1135 40.1667 25.8139 40.6144C25.5143 41.0621 25.0888 41.411 24.5911 41.6171C24.0933 41.8231 23.5457 41.8771 23.0173 41.7722C22.489 41.6673 22.0035 41.4082 21.6223 41.0276L15.6903 35.0936C15.1996 34.5784 14.9298 33.8917 14.9385 33.1803C14.9472 32.4689 15.2336 31.7891 15.7367 31.286C16.2398 30.7829 16.9196 30.4964 17.6311 30.4878C18.3425 30.4791 19.0291 30.7489 19.5443 31.2396L25.4763 37.1736C25.7299 37.4264 25.931 37.7269 26.068 38.0578C26.2049 38.3887 26.2751 38.7434 26.2743 39.1016Z"
        fill="#222222" />
    <path
        d="M32.0826 27.8364C31.5439 27.8358 31.0175 27.6756 30.5698 27.376C30.122 27.0764 29.7731 26.6509 29.5671 26.1532C29.361 25.6555 29.307 25.1079 29.412 24.5795C29.5169 24.0511 29.776 23.5657 30.1566 23.1844L36.0906 17.2524C36.6058 16.7618 37.2924 16.492 38.0038 16.5006C38.7153 16.5093 39.3951 16.7958 39.8982 17.2989C40.4013 17.8019 40.6877 18.4818 40.6964 19.1932C40.7051 19.9046 40.4353 20.5912 39.9446 21.1064L34.0106 27.0384C33.7578 27.2921 33.4573 27.4932 33.1264 27.6301C32.7955 27.7671 32.4407 27.8372 32.0826 27.8364Z"
        fill="#222222" />
    <path
        d="M40.6957 25.114C40.6951 25.6527 40.5349 26.1791 40.2353 26.6268C39.9357 27.0745 39.5102 27.4235 39.0125 27.6295C38.5148 27.8356 37.9672 27.8896 37.4388 27.7846C36.9104 27.6797 36.425 27.4206 36.0437 27.04L30.1117 21.106C29.6211 20.5908 29.3513 19.9042 29.3599 19.1928C29.3686 18.4813 29.6551 17.8015 30.1582 17.2984C30.6613 16.7953 31.3411 16.5089 32.0525 16.5002C32.7639 16.4915 33.4505 16.7613 33.9657 17.252L39.8977 23.186C40.1514 23.4388 40.3525 23.7393 40.4894 24.0702C40.6264 24.4011 40.6965 24.7559 40.6957 25.114Z"
        fill="#222222" />
    <path d="M5.27075 83.54H57.4508V88.99H5.27075V83.54Z" fill="#222222" />
    <path
        d="M46.6987 32.5C47.9587 32.5 49.2267 32.664 50.4727 32.996C51.1558 33.1958 51.7337 33.655 52.0828 34.2753C52.4319 34.8956 52.5246 35.6278 52.341 36.3155C52.1574 37.0032 51.712 37.5918 51.1002 37.9555C50.4884 38.3192 49.7585 38.4292 49.0667 38.262C47.5013 37.8462 45.8542 37.848 44.2898 38.2674C42.7254 38.6868 41.2982 39.509 40.1507 40.652C39.007 41.7995 38.1842 43.2269 37.7645 44.7917C37.3447 46.3566 37.3427 48.0041 37.7587 49.57C37.8511 49.9156 37.8745 50.2761 37.8276 50.6308C37.7806 50.9855 37.6641 51.3275 37.4849 51.6371C37.3056 51.9468 37.0671 52.218 36.7829 52.4354C36.4987 52.6528 36.1745 52.812 35.8287 52.904C35.4829 52.997 35.1221 53.0209 34.7671 52.9741C34.4121 52.9274 34.0698 52.8111 33.7599 52.6318C33.4499 52.4525 33.1784 52.2137 32.961 51.9292C32.7435 51.6447 32.5844 51.3201 32.4927 50.974C31.8328 48.4847 31.8367 45.8659 32.5041 43.3787C33.1716 40.8914 34.4792 38.6225 36.2967 36.798C39.0585 34.0453 42.7993 32.4983 46.6987 32.5Z"
        fill="#222222" />
    <path
        d="M47.9563 41.4778C47.9563 42.798 47.4318 44.0641 46.4983 44.9976C45.5648 45.9311 44.2987 46.4556 42.9785 46.4556C41.6583 46.4556 40.3922 45.9311 39.4587 44.9976C38.5252 44.0641 38.0007 42.798 38.0007 41.4778C38.0007 40.1576 38.5252 38.8915 39.4587 37.958C40.3922 37.0244 41.6583 36.5 42.9785 36.5C44.2987 36.5 45.5648 37.0244 46.4983 37.958C47.4318 38.8915 47.9563 40.1576 47.9563 41.4778Z"
        fill="#222222" />
</svg>