<svg width="32" height="45" viewBox="0 0 32 45" fill="none" xmlns="http://www.w3.org/2000/svg">
    <path
        d="M15.68 38.51L4.71701 27.547C0.755009 23.585 -0.876991 17.744 0.457009 12.304C1.79401 6.85401 5.74401 2.72801 11.293 0.984014C14.1481 0.0820295 17.2119 0.0820295 20.067 0.984014C25.617 2.72801 29.567 6.85401 30.903 12.304C32.237 17.744 30.605 23.585 26.643 27.547L15.68 38.51Z"
        fill="#FAFAFA" />
    <path
        d="M15.68 38.51L4.71701 27.547C0.755009 23.585 -0.876991 17.744 0.457009 12.304C1.79401 6.85401 5.74401 2.72801 11.293 0.984014C14.1481 0.0820295 17.2119 0.0820295 20.067 0.984014C25.617 2.72801 29.567 6.85401 30.903 12.304C32.237 17.744 30.605 23.585 26.643 27.547L15.68 38.51ZM15.68 3.03401C14.478 3.03401 13.277 3.21701 12.11 3.58401C7.49001 5.03501 4.20701 8.45001 3.10401 12.954C2.56309 15.1918 2.60445 17.5309 3.22415 19.7481C3.84385 21.9654 5.02123 23.9869 6.64401 25.62L15.68 34.657L24.717 25.62C26.3397 23.9867 27.517 21.965 28.1367 19.7476C28.7564 17.5301 28.7978 15.191 28.257 12.953C27.152 8.45001 23.87 5.03501 19.25 3.58401C18.095 3.21994 16.8911 3.03447 15.68 3.03401Z"
        fill="#222222" />
    <path
        d="M8.83 20.662C8.56065 20.6617 8.29743 20.5816 8.07358 20.4318C7.84972 20.282 7.67526 20.0692 7.57223 19.8204C7.4692 19.5715 7.44221 19.2977 7.49467 19.0335C7.54713 18.7693 7.67669 18.5266 7.867 18.336L10.834 15.37C11.0916 15.1247 11.4349 14.9898 11.7906 14.9941C12.1463 14.9984 12.4862 15.1417 12.7378 15.3932C12.9893 15.6447 13.1326 15.9847 13.1369 16.3404C13.1412 16.6961 13.0063 17.0394 12.761 17.297L9.794 20.263C9.66758 20.3898 9.51732 20.4904 9.35187 20.5588C9.18642 20.6273 9.00906 20.6624 8.83 20.662Z"
        fill="#222222" />
    <path
        d="M13.1368 19.3008C13.1364 19.5701 13.0563 19.8333 12.9065 20.0572C12.7568 20.281 12.544 20.4555 12.2951 20.5585C12.0463 20.6616 11.7725 20.6886 11.5083 20.6361C11.2441 20.5836 11.0014 20.4541 10.8108 20.2638L7.84475 17.2968C7.59942 17.0392 7.46451 16.6959 7.46885 16.3402C7.47319 15.9844 7.61642 15.6445 7.86796 15.393C8.11951 15.1414 8.45942 14.9982 8.81513 14.9939C9.17084 14.9895 9.51415 15.1244 9.77175 15.3698L12.7378 18.3368C12.8646 18.4632 12.9651 18.6134 13.0336 18.7789C13.1021 18.9443 13.1371 19.1217 13.1368 19.3008Z"
        fill="#222222" />
    <path
        d="M16.0409 13.6682C15.7716 13.6679 15.5084 13.5878 15.2845 13.438C15.0607 13.2882 14.8862 13.0755 14.7832 12.8266C14.6801 12.5777 14.6531 12.3039 14.7056 12.0397C14.7581 11.7755 14.8876 11.5328 15.0779 11.3422L18.0449 8.37621C18.3025 8.13088 18.6458 7.99598 19.0016 8.00032C19.3573 8.00465 19.6972 8.14788 19.9487 8.39943C20.2003 8.65097 20.3435 8.99089 20.3478 9.3466C20.3522 9.7023 20.2173 10.0456 19.9719 10.3032L17.0049 13.2692C16.8785 13.396 16.7283 13.4966 16.5628 13.5651C16.3974 13.6335 16.22 13.6686 16.0409 13.6682Z"
        fill="#222222" />
    <path
        d="M20.3475 12.307C20.3472 12.5763 20.2671 12.8396 20.1173 13.0634C19.9675 13.2873 19.7548 13.4617 19.5059 13.5648C19.257 13.6678 18.9832 13.6948 18.719 13.6423C18.4548 13.5899 18.2121 13.4603 18.0215 13.27L15.0555 10.303C14.8102 10.0454 14.6753 9.70209 14.6796 9.34638C14.6839 8.99067 14.8272 8.65075 15.0787 8.39921C15.3303 8.14767 15.6702 8.00444 16.0259 8.0001C16.3816 7.99576 16.7249 8.13066 16.9825 8.376L19.9485 11.343C20.0753 11.4694 20.1759 11.6197 20.2443 11.7851C20.3128 11.9506 20.3479 12.1279 20.3475 12.307Z"
        fill="#222222" />
    <path d="M2.63501 41.52H28.725V44.245H2.63501V41.52Z" fill="#222222" />
    <path
        d="M23.349 16C23.979 16 24.613 16.082 25.236 16.248C25.5775 16.3479 25.8665 16.5775 26.041 16.8877C26.2156 17.1978 26.2619 17.5639 26.1701 17.9078C26.0783 18.2516 25.8557 18.5459 25.5497 18.7278C25.2438 18.9096 24.8789 18.9646 24.533 18.881C23.7503 18.6731 22.9268 18.674 22.1445 18.8837C21.3623 19.0934 20.6487 19.5045 20.075 20.076C19.5031 20.6498 19.0917 21.3635 18.8819 22.1459C18.672 22.9283 18.671 23.7521 18.879 24.535C18.9252 24.7078 18.9369 24.8881 18.9134 25.0654C18.8899 25.2428 18.8317 25.4137 18.7421 25.5686C18.6525 25.7234 18.5332 25.859 18.3911 25.9677C18.249 26.0764 18.0869 26.156 17.914 26.202C17.7411 26.2485 17.5607 26.2604 17.3832 26.2371C17.2057 26.2137 17.0345 26.1556 16.8796 26.0659C16.7246 25.9762 16.5889 25.8569 16.4801 25.7146C16.3714 25.5724 16.2918 25.4101 16.246 25.237C15.916 23.9924 15.918 22.683 16.2517 21.4393C16.5854 20.1957 17.2392 19.0612 18.148 18.149C19.5289 16.7726 21.3993 15.9992 23.349 16Z"
        fill="#222222" />
    <path
        d="M23.9778 20.4889C23.9778 21.149 23.7156 21.782 23.2488 22.2488C22.782 22.7156 22.149 22.9778 21.4889 22.9778C20.8288 22.9778 20.1957 22.7156 19.729 22.2488C19.2622 21.782 19 21.149 19 20.4889C19 19.8288 19.2622 19.1957 19.729 18.729C20.1957 18.2622 20.8288 18 21.4889 18C22.149 18 22.782 18.2622 23.2488 18.729C23.7156 19.1957 23.9778 19.8288 23.9778 20.4889Z"
        fill="#222222" />
</svg>