<svg width="128" height="45" viewBox="0 0 128 45" fill="none" xmlns="http://www.w3.org/2000/svg">
<g clip-path="url(#clip0_60_129)">
<path d="M15.68 38.51L4.71701 27.547C0.755009 23.585 -0.876991 17.744 0.457009 12.304C1.79401 6.85401 5.74401 2.72801 11.293 0.984014C14.1481 0.0820295 17.2119 0.0820295 20.067 0.984014C25.617 2.72801 29.567 6.85401 30.903 12.304C32.237 17.744 30.605 23.585 26.643 27.547L15.68 38.51Z" fill="#FAFAFA"/>
<path d="M100.924 25.729H127.014V28.454H100.924V25.729Z" fill="#277E66"/>
<path d="M43.298 0.211004C46.048 0.211004 48.151 0.701004 49.614 1.678C51.076 2.656 51.807 4.176 51.807 6.238C51.807 7.523 51.513 8.568 50.923 9.369C50.333 10.17 49.483 10.8 48.373 11.259C48.743 11.717 49.13 12.241 49.535 12.83C49.94 13.421 50.341 14.038 50.737 14.681C51.134 15.324 51.517 15.993 51.888 16.689C52.258 17.385 52.6 18.069 52.918 18.737H48.31C47.974 18.139 47.634 17.531 47.29 16.914C46.946 16.297 46.59 15.698 46.227 15.117C45.8804 14.559 45.5223 14.0082 45.153 13.465C44.8 12.945 44.445 12.475 44.093 12.051H42.058V18.737H37.934V0.687004C38.8558 0.508107 39.7875 0.384553 40.724 0.317004C41.684 0.247004 42.541 0.211004 43.298 0.211004ZM43.537 3.726C43.237 3.726 42.969 3.736 42.731 3.753C42.5065 3.76906 42.2822 3.78672 42.058 3.806V8.774H43.22C44.77 8.774 45.88 8.58 46.55 8.194C47.22 7.805 47.554 7.144 47.554 6.21C47.554 5.312 47.215 4.674 46.536 4.294C45.858 3.916 44.858 3.726 43.537 3.726ZM73.32 9.567C73.32 11.135 73.087 12.514 72.62 13.703C72.153 14.892 71.514 15.888 70.704 16.689C69.8835 17.4972 68.8956 18.1154 67.81 18.5C66.652 18.9114 65.4309 19.1171 64.202 19.108C62.952 19.108 61.772 18.904 60.662 18.5C59.5754 18.109 58.5842 17.4917 57.754 16.689C56.926 15.888 56.275 14.892 55.799 13.703C55.323 12.514 55.085 11.135 55.085 9.567C55.085 7.999 55.332 6.62 55.825 5.431C56.319 4.242 56.985 3.242 57.82 2.431C58.65 1.62515 59.641 1.0039 60.728 0.608004C61.8407 0.20071 63.0171 -0.00517034 64.202 3.59291e-06C65.453 3.59291e-06 66.634 0.203004 67.744 0.608004C68.8328 1.0003 69.8245 1.622 70.652 2.431C71.48 3.242 72.132 4.242 72.607 5.431C73.082 6.62 73.32 7.999 73.32 9.567ZM59.34 9.567C59.34 10.465 59.45 11.276 59.67 11.998C59.891 12.721 60.208 13.342 60.622 13.861C61.035 14.381 61.542 14.782 62.142 15.064C62.74 15.346 63.427 15.487 64.202 15.487C64.96 15.487 65.643 15.346 66.252 15.064C66.8501 14.789 67.375 14.3768 67.784 13.861C68.197 13.342 68.515 12.721 68.736 11.998C68.956 11.276 69.066 10.465 69.066 9.567C69.066 8.669 68.956 7.854 68.736 7.123C68.516 6.392 68.197 5.766 67.784 5.246C67.3744 4.73065 66.8492 4.31889 66.251 4.044C65.643 3.762 64.961 3.621 64.202 3.621C63.427 3.621 62.74 3.766 62.142 4.057C61.542 4.347 61.035 4.753 60.622 5.273C60.208 5.793 59.892 6.418 59.67 7.149C59.45 7.88 59.34 8.686 59.34 9.567ZM84.71 19.107C83.424 19.107 82.314 18.927 81.38 18.565C80.446 18.205 79.676 17.703 79.068 17.06C78.4524 16.4037 77.9918 15.6178 77.72 14.76C77.43 13.87 77.284 12.888 77.284 11.814V0.422004H81.407V11.47C81.407 12.21 81.49 12.84 81.658 13.36C81.825 13.879 82.055 14.302 82.345 14.629C82.636 14.955 82.988 15.188 83.402 15.329C83.815 15.469 84.27 15.539 84.763 15.539C85.768 15.539 86.583 15.232 87.208 14.615C87.833 13.999 88.148 12.95 88.148 11.47V0.422004H92.269V11.814C92.269 12.888 92.119 13.874 91.819 14.774C91.5404 15.638 91.0708 16.4282 90.445 17.086C89.828 17.729 89.045 18.226 88.093 18.578C87.143 18.932 86.014 19.107 84.71 19.107ZM110.61 0.423004V3.938H105.087V18.737H100.964V3.937H95.44V0.424004L110.61 0.423004ZM114.045 18.737V0.423004H126.413V3.884H118.168V7.48H125.488V10.863H118.168V15.276H127.021V18.738L114.045 18.737ZM44.642 33.238C45.382 31.99 46.087 30.743 46.758 29.495C47.4209 28.2614 48.039 27.0043 48.611 25.726H53.156C52.1697 27.666 51.13 29.5784 50.038 31.461C48.9428 33.3447 47.8059 35.2039 46.628 37.037V44.041H42.505V37.091C41.323 35.2489 40.182 33.3808 39.083 31.488C37.987 29.5962 36.9429 27.6749 35.952 25.726H40.735C41.3023 27.0013 41.9093 28.2586 42.555 29.496C43.217 30.7618 43.9129 32.0096 44.642 33.238ZM72.448 34.87C72.448 36.439 72.215 37.817 71.748 39.007C71.281 40.196 70.642 41.192 69.832 41.993C69.0114 42.8008 68.0235 43.4187 66.938 43.803C65.819 44.208 64.616 44.411 63.33 44.411C62.08 44.411 60.9 44.208 59.79 43.804C58.7034 43.413 57.7122 42.7957 56.882 41.993C56.054 41.192 55.403 40.196 54.927 39.007C54.451 37.817 54.213 36.439 54.213 34.871C54.213 33.303 54.459 31.924 54.953 30.735C55.447 29.545 56.113 28.545 56.948 27.735C57.778 26.9292 58.769 26.3079 59.856 25.912C60.9687 25.5047 62.1451 25.2988 63.33 25.304C64.581 25.304 65.762 25.507 66.872 25.912C67.9608 26.3043 68.9525 26.926 69.78 27.735C70.607 28.545 71.26 29.545 71.735 30.735C72.21 31.924 72.448 33.302 72.448 34.87ZM58.468 34.871C58.468 35.769 58.578 36.58 58.798 37.301C59.019 38.025 59.335 38.646 59.75 39.165C60.163 39.685 60.67 40.085 61.27 40.368C61.868 40.65 62.555 40.791 63.33 40.791C64.088 40.791 64.771 40.65 65.38 40.368C65.978 40.0932 66.5026 39.681 66.911 39.165C67.325 38.645 67.643 38.025 67.863 37.302C68.083 36.58 68.194 35.769 68.194 34.871C68.194 33.973 68.084 33.158 67.864 32.426C67.644 31.695 67.325 31.07 66.911 30.55C66.5022 30.0342 65.9773 29.6223 65.379 29.348C64.771 29.066 64.089 28.925 63.33 28.925C62.555 28.925 61.868 29.07 61.27 29.361C60.67 29.651 60.163 30.057 59.75 30.576C59.335 31.096 59.02 31.722 58.798 32.453C58.578 33.183 58.468 33.99 58.468 34.871ZM83.838 44.41C82.552 44.41 81.442 44.23 80.508 43.869C79.574 43.509 78.804 43.007 78.195 42.363C77.58 41.7065 77.1197 40.9206 76.848 40.063C76.558 39.175 76.412 38.192 76.412 37.117V25.727H80.535V36.774C80.535 37.514 80.618 38.144 80.785 38.663C80.953 39.183 81.182 39.606 81.473 39.932C81.764 40.258 82.115 40.491 82.53 40.632C82.943 40.772 83.398 40.844 83.891 40.844C84.896 40.844 85.711 40.536 86.336 39.918C86.961 39.302 87.274 38.254 87.274 36.774V25.727H91.397V37.117C91.397 38.192 91.247 39.179 90.947 40.077C90.6681 40.9412 90.1986 41.7317 89.573 42.39C88.956 43.033 88.173 43.53 87.221 43.883C86.269 44.236 85.142 44.41 83.838 44.41ZM15.68 38.51L4.71701 27.547C0.755009 23.585 -0.876991 17.744 0.457009 12.304C1.79401 6.854 5.74401 2.728 11.293 0.984004C14.1481 0.0820189 17.2119 0.0820189 20.067 0.984004C25.617 2.728 29.567 6.854 30.903 12.304C32.237 17.744 30.605 23.585 26.643 27.547L15.68 38.51ZM15.68 3.034C14.478 3.034 13.277 3.217 12.11 3.584C7.49001 5.035 4.20701 8.45 3.10401 12.954C2.56309 15.1918 2.60445 17.5309 3.22415 19.7481C3.84385 21.9654 5.02123 23.9869 6.64401 25.62L15.68 34.657L24.717 25.62C26.3397 23.9867 27.517 21.9649 28.1367 19.7475C28.7564 17.5301 28.7978 15.191 28.257 12.953C27.152 8.45 23.87 5.035 19.25 3.584C18.095 3.21993 16.8911 3.03445 15.68 3.034Z" fill="#222222"/>
<path d="M8.83 20.662C8.56065 20.6617 8.29743 20.5816 8.07358 20.4318C7.84972 20.282 7.67526 20.0692 7.57223 19.8204C7.4692 19.5715 7.44221 19.2977 7.49467 19.0335C7.54713 18.7693 7.67669 18.5266 7.867 18.336L10.834 15.37C11.0916 15.1247 11.4349 14.9898 11.7906 14.9941C12.1463 14.9984 12.4862 15.1417 12.7378 15.3932C12.9893 15.6447 13.1326 15.9847 13.1369 16.3404C13.1412 16.6961 13.0063 17.0394 12.761 17.297L9.794 20.263C9.66758 20.3898 9.51732 20.4904 9.35187 20.5588C9.18642 20.6273 9.00906 20.6624 8.83 20.662Z" fill="#222222"/>
<path d="M19.18 10.29C19.18 10.7541 18.9956 11.1993 18.6674 11.5274C18.3392 11.8556 17.8941 12.04 17.43 12.04C16.9659 12.04 16.5207 11.8556 16.1926 11.5274C15.8644 11.1993 15.68 10.7541 15.68 10.29C15.68 9.82588 15.8644 9.38076 16.1926 9.05257C16.5207 8.72438 16.9659 8.54001 17.43 8.54001C17.8941 8.54001 18.3392 8.72438 18.6674 9.05257C18.9956 9.38076 19.18 9.82588 19.18 10.29Z" fill="#277E66"/>
<path d="M16.109 23.64C15.479 23.64 14.845 23.558 14.222 23.392C13.8804 23.2921 13.5915 23.0625 13.4169 22.7524C13.2424 22.4422 13.1961 22.0761 13.2879 21.7322C13.3797 21.3884 13.6023 21.0941 13.9082 20.9122C14.2142 20.7304 14.5791 20.6754 14.925 20.759C15.7077 20.9669 16.5312 20.966 17.3134 20.7563C18.0957 20.5466 18.8092 20.1355 19.383 19.564C19.9549 18.9902 20.3663 18.2765 20.5761 17.4941C20.786 16.7117 20.787 15.8879 20.579 15.105C20.5328 14.9322 20.5211 14.7519 20.5446 14.5746C20.5681 14.3972 20.6263 14.2263 20.7159 14.0714C20.8055 13.9166 20.9248 13.781 21.0669 13.6723C21.209 13.5636 21.3711 13.484 21.544 13.438C21.7169 13.3915 21.8973 13.3796 22.0748 13.4029C22.2523 13.4263 22.4234 13.4844 22.5784 13.5741C22.7334 13.6638 22.8691 13.7831 22.9779 13.9254C23.0866 14.0676 23.1662 14.2299 23.212 14.403C23.542 15.6476 23.54 16.957 23.2063 18.2007C22.8726 19.4443 22.2187 20.5788 21.31 21.491C19.9291 22.8674 18.0587 23.6408 16.109 23.64ZM2.63501 41.52H28.725V44.245H2.63501V41.52Z" fill="#222222"/>
</g>
<defs>
<clipPath id="clip0_60_129">
<rect width="127.021" height="44.411" fill="white"/>
</clipPath>
</defs>
</svg>
